
<svg width="222px" height="298px" viewBox="0 0 222 298" version="1.1" xmlns="http://www.w3.org/2000/svg" xmlns:xlink="http://www.w3.org/1999/xlink">
    <!-- Generator: Sketch 50.2 (55047) - http://www.bohemiancoding.com/sketch -->
    <desc>Created with Sketch.</desc>
    <defs></defs>
    <g id="Symbols" stroke="none" stroke-width="1" fill="none" fill-rule="evenodd">
        <g id="Milk-Copy" transform="translate(-78.000000, -73.000000)">
            <g id="Pages" transform="translate(81.000000, 76.000000)" stroke="#55B7FF" stroke-linecap="round" stroke-linejoin="round" stroke-width="5">
                <polyline id="Path-17" fill="#55B7FF" points="0 45.356358 119 0 119 12.8492811"></polyline>
                <polyline id="Path-19" fill="#FFFFFF" points="3 47.6407118 150 3.66053887 150 42.1835136"></polyline>
                <polyline id="Path-20" fill="#FFFFFF" points="8 50.3938031 176 13 176 47.1802651"></polyline>
                <polyline id="Path-21" fill="#FFFFFF" points="14 53.2235012 199.20631 30 199.20631 81.0235916"></polyline>
            </g>
            <rect id="MILK-BOOK" fill="#55B7FF" x="100" y="130" width="200" height="240" rx="2"></rect>
            <rect id="Path" fill="#FFFFFF" x="94" y="135" width="10" height="230"></rect>
            <polygon id="Path-16" stroke="#55B7FF" stroke-width="4" fill="#55B7FF" stroke-linejoin="round" points="100 128.892857 80 120 80 360.107143 100 369"></polygon>
            <g id="Group" transform="translate(152.000000, 281.000000)" fill="#FFFFFF">
                <path d="M35.7085714,0.920842105 C35.8914295,1.26189644 35.9999998,1.56884074 36.0342857,1.84168421 C36.0685716,2.11452768 36.0857143,2.51241844 36.0857143,3.03536842 L36.0857143,21.9637895 C36.0857143,23.5326394 35.6514329,24.4534723 34.7828571,24.7263158 C34.3485693,24.8627375 33.8000033,24.9309474 33.1371429,24.9309474 C32.4742824,24.9309474 31.9485734,24.8741058 31.56,24.7604211 C31.1714266,24.6467363 30.8742867,24.5103166 30.6685714,24.3511579 C30.4628561,24.1919992 30.3028577,23.9646331 30.1885714,23.6690526 C30.0742851,23.2825244 30.0171429,22.6913724 30.0171429,21.8955789 L30.0171429,10.4703158 C29.4457114,11.1751614 28.6114341,12.2949397 27.5142857,13.8296842 C26.4171374,15.3644287 25.7200015,16.3250507 25.4228571,16.7115789 C25.1257128,17.0981072 24.9200006,17.3652624 24.8057143,17.5130526 C24.691428,17.6608428 24.4114308,17.8654724 23.9657143,18.1269474 C23.5199978,18.3884224 23.0400026,18.5191579 22.5257143,18.5191579 C22.011426,18.5191579 21.5428593,18.3997907 21.12,18.1610526 C20.6971407,17.9223146 20.3942866,17.6892643 20.2114286,17.4618947 L19.9371429,17.0867368 C19.4799977,16.5183129 18.5771496,15.3075882 17.2285714,13.4545263 C15.8799933,11.6014644 15.148572,10.6067375 15.0342857,10.4703158 L15.0342857,21.9637895 C15.0342857,22.4867395 15.017143,22.8789461 14.9828571,23.1404211 C14.9485713,23.401896 14.8400009,23.6917879 14.6571429,24.0101053 C14.314284,24.6240031 13.4228643,24.9309474 11.9828571,24.9309474 C10.5885645,24.9309474 9.72000171,24.6240031 9.37714286,24.0101053 C9.1942848,23.6917879 9.08571446,23.3962119 9.05142857,23.1233684 C9.01714269,22.850525 9,22.4412659 9,21.8955789 L9,2.96715789 C9,2.44420791 9.01714269,2.05200131 9.05142857,1.79052632 C9.08571446,1.52905132 9.1942848,1.22779118 9.37714286,0.886736842 C9.72000171,0.295575992 10.6114214,0 12.0514286,0 C12.6685745,0 13.1999978,0.0738939979 13.6457143,0.221684211 C14.0914308,0.369474423 14.3828565,0.522946573 14.52,0.682105263 L14.7257143,0.886736842 L22.5085714,11.0501053 C26.3943051,5.93429021 28.9885649,2.55790292 30.2914286,0.920842105 C30.6800019,0.306944299 31.5999927,0 33.0514286,0 C34.5028644,0 35.3885698,0.306944299 35.7085714,0.920842105 Z" id="Path"></path>
                <path d="M38,3.00126316 C38,2.47831317 38.0171427,2.08610657 38.0514286,1.82463158 C38.0857145,1.56315659 38.1942848,1.26189644 38.3771429,0.920842105 C38.6971445,0.306944299 39.5885641,0 41.0514286,0 C42.6514366,0 43.5999985,0.420627373 43.8971429,1.26189474 C44.0114291,1.64842299 44.0685714,2.23957497 44.0685714,3.03536842 L44.0685714,21.9978947 C44.0685714,22.5435817 44.0514287,22.9414724 44.0171429,23.1915789 C43.982857,23.4416855 43.8742866,23.7372615 43.6914286,24.0783158 C43.371427,24.6922136 42.4800073,24.9991579 41.0171429,24.9991579 C39.4171349,24.9991579 38.4800014,24.5671622 38.2057143,23.7031579 C38.0685707,23.3393666 38,22.7595829 38,21.9637895 L38,3.00126316 Z" id="Path"></path>
                <path d="M53.0685714,19.9515789 L62.3942857,19.9515789 C63.1485752,19.9515789 63.6971411,20.0368413 64.04,20.2073684 C64.3828589,20.3778956 64.611428,20.6450508 64.7257143,21.0088421 C64.8400006,21.3726334 64.8971429,21.8557865 64.8971429,22.4583158 C64.8971429,23.0608451 64.8400006,23.5439982 64.7257143,23.9077895 C64.611428,24.2715808 64.4171442,24.5216835 64.1428571,24.6581053 C63.7085693,24.8854748 63.1142895,24.9991579 62.36,24.9991579 L50.0171429,24.9991579 C48.4171349,24.9991579 47.4800014,24.5671622 47.2057143,23.7031579 C47.0685707,23.3393666 47,22.7595829 47,21.9637895 L47,3.00126316 C47,2.47831317 47.0171427,2.08610657 47.0514286,1.82463158 C47.0857145,1.56315659 47.1942848,1.26189644 47.3771429,0.920842105 C47.6971445,0.306944299 48.5885641,0 50.0514286,0 C51.6514366,0 52.5999985,0.420627373 52.8971429,1.26189474 C53.0114291,1.64842299 53.0685714,2.23957497 53.0685714,3.03536842 L53.0685714,19.9515789 Z" id="Path"></path>
                <path d="M77.7657143,12.8576842 C81.2628746,16.2000167 83.7428498,18.7124126 85.2057143,20.3949474 C85.9600038,21.2362147 86.3371429,21.9467339 86.3371429,22.5265263 C86.3371429,23.1063187 85.8800046,23.7884171 84.9657143,24.5728421 C84.051424,25.3572671 83.3028601,25.7494737 82.72,25.7494737 C82.1371399,25.7494737 81.4342898,25.2720048 80.6114286,24.3170526 L73.0685714,15.7566316 L73.0685714,22.4071579 C73.0685714,22.9528448 73.0514287,23.3507356 73.0171429,23.6008421 C72.982857,23.8509486 72.8742866,24.1465246 72.6914286,24.4875789 C72.371427,25.1014768 71.4800073,25.4084211 70.0171429,25.4084211 C68.4171349,25.4084211 67.4800014,24.9764254 67.2057143,24.1124211 C67.0685707,23.7486298 67,23.1688461 67,22.3730526 L67,3.41052632 C67,2.88757633 67.0171427,2.49536973 67.0514286,2.23389474 C67.0857145,1.97241975 67.1942848,1.6711596 67.3771429,1.33010526 C67.6971445,0.716207457 68.5885641,0.409263158 70.0514286,0.409263158 C71.6514366,0.409263158 72.5999985,0.829890531 72.8971429,1.67115789 C73.0114291,2.05768614 73.0685714,2.64883813 73.0685714,3.44463158 L73.0685714,9.95873684 C76.1771584,6.47998261 78.691419,3.62653746 80.6114286,1.39831579 C81.4114326,0.466100602 82.1085685,0 82.7028571,0 C83.2971458,0 84.051424,0.392206604 84.9657143,1.17663158 C85.8800046,1.96105655 86.3371429,2.643155 86.3371429,3.22294737 C86.3371429,3.80273974 85.9942891,4.49052234 85.3085714,5.28631579 C83.9828505,6.80969183 81.9257282,8.90146038 79.1371429,11.5616842 L77.7657143,12.8576842 Z" id="Path"></path>
                <path d="M13.7828571,57.6067368 C13.7828571,57.0610499 13.7200006,56.6290542 13.5942857,56.3107368 C13.4685708,55.9924195 13.2571443,55.7650533 12.96,55.6286316 C12.5028549,55.4467359 11.8628613,55.3557895 11.04,55.3557895 C10.2171387,55.3557895 9.60000206,55.1966332 9.18857143,54.8783158 C8.7771408,54.5599984 8.57142857,53.9063207 8.57142857,52.9172632 C8.57142857,51.9282056 8.78285503,51.2745279 9.20571429,50.9562105 C9.62857354,50.6378931 10.3314237,50.4787368 11.3142857,50.4787368 C12.228576,50.4787368 12.7771419,50.2400024 12.96,49.7625263 C13.0285718,49.5124198 13.0628571,49.1031607 13.0628571,48.5347368 C13.0628571,47.9663129 12.8742876,47.5684222 12.4971429,47.3410526 C12.1199981,47.1136831 11.5542895,47 10.8,47 L6,47 L6,59.9258947 L11.6228571,59.9258947 C13.0628643,59.9258947 13.7828571,59.1528498 13.7828571,57.6067368 Z M17.8971429,52.6298947 C19.245721,54.2214816 19.92,56.0063059 19.92,57.9844211 C19.8742855,60.2581166 19.0914362,62.1623081 17.5714286,63.6970526 C16.051421,65.2317971 14.2057251,65.9991579 12.0342857,65.9991579 L3.01714286,65.9991579 C1.41713486,65.9991579 0.480001371,65.5671622 0.205714286,64.7031579 C0.0685707429,64.3166296 0,63.7254777 0,62.9296842 L0,44.0012632 C0,43.4555762 0.0171426857,43.0576855 0.0514285714,42.8075789 C0.0857144571,42.5574724 0.1942848,42.2618964 0.377142857,41.9208421 C0.697144457,41.3069443 1.58856411,41 3.05142857,41 L11.6914286,41 C13.7942962,41 15.5542786,41.7275717 16.9714286,43.1827368 C18.4571503,44.660639 19.2,46.4340949 19.2,48.5031579 C19.2,50.003797 18.7657186,51.3793622 17.8971429,52.6298947 Z" id="Path"></path>
                <path d="M29.9714286,58.7492632 C31.2857209,60.0111642 32.7542776,60.6421053 34.3771429,60.6421053 C36.0000081,60.6421053 37.4628506,60.0282167 38.7657143,58.8004211 C40.0685779,57.5726254 40.72,55.9242209 40.72,53.8551579 C40.72,51.7860949 40.0628637,50.126322 38.7485714,48.8757895 C37.4342791,47.6252569 35.9657224,47 34.3428571,47 C32.7199919,47 31.2571494,47.6309411 29.9542857,48.8928421 C28.6514221,50.1547432 28,51.7974636 28,53.8210526 C28,55.8446417 28.6571363,57.4873621 29.9714286,58.7492632 Z M34.3085714,41 C37.6914455,41 40.628559,42.2164089 43.12,44.6492632 C45.611441,47.0821174 46.8571429,50.100403 46.8571429,53.7042105 C46.8571429,57.308018 45.6685833,60.377461 43.2914286,62.9126316 C40.9142738,65.4478021 37.9885888,66.7153684 34.5142857,66.7153684 C31.0399826,66.7153684 28.0857265,65.4648546 25.6514286,62.9637895 C23.2171307,60.4627243 22,57.4842278 22,54.0282105 C22,52.1410432 22.3428537,50.3732714 23.0285714,48.7248421 C23.7142891,47.0764128 24.6285657,45.6951635 25.7714286,44.5810526 C26.9142914,43.4669418 28.228564,42.5915821 29.7142857,41.9549474 C31.2000074,41.3183126 32.7314207,41 34.3085714,41 Z" id="Path"></path>
                <path d="M60.3085714,41 C63.6914455,41 66.628559,42.2164089 69.12,44.6492632 C71.611441,47.0821174 72.8571429,50.100403 72.8571429,53.7042105 C72.8571429,57.308018 71.6685833,60.377461 69.2914286,62.9126316 C66.9142738,65.4478021 63.9885888,66.7153684 60.5142857,66.7153684 C57.0399826,66.7153684 54.0857265,65.4648546 51.6514286,62.9637895 C49.2171307,60.4627243 48,57.4842278 48,54.0282105 C48,52.1410432 48.3428537,50.3732714 49.0285714,48.7248421 C49.7142891,47.0764128 50.6285657,45.6951635 51.7714286,44.5810526 C52.9142914,43.4669418 54.228564,42.5915821 55.7142857,41.9549474 C57.2000074,41.3183126 58.7314207,41 60.3085714,41 Z M55.9714286,58.7492632 C57.2857209,60.0111642 58.7542776,60.6421053 60.3771429,60.6421053 C62.0000081,60.6421053 63.4628506,60.0282167 64.7657143,58.8004211 C66.0685779,57.5726254 66.72,55.9242209 66.72,53.8551579 C66.72,51.7860949 66.0628637,50.126322 64.7485714,48.8757895 C63.4342791,47.6252569 61.9657224,47 60.3428571,47 C58.7199919,47 57.2571494,47.6309411 55.9542857,48.8928421 C54.6514221,50.1547432 54,51.7974636 54,53.8210526 C54,55.8446417 54.6571363,57.4873621 55.9714286,58.7492632 Z" id="Path"></path>
                <path d="M86.7657143,53.8576842 C90.2628746,57.2000167 92.7428498,59.7124126 94.2057143,61.3949474 C94.9600038,62.2362147 95.3371429,62.9467339 95.3371429,63.5265263 C95.3371429,64.1063187 94.8800046,64.7884171 93.9657143,65.5728421 C93.051424,66.3572671 92.3028601,66.7494737 91.72,66.7494737 C91.1371399,66.7494737 90.4342898,66.2720048 89.6114286,65.3170526 L82.0685714,56.7566316 L82.0685714,63.4071579 C82.0685714,63.9528448 82.0514287,64.3507356 82.0171429,64.6008421 C81.982857,64.8509486 81.8742866,65.1465246 81.6914286,65.4875789 C81.371427,66.1014768 80.4800073,66.4084211 79.0171429,66.4084211 C77.4171349,66.4084211 76.4800014,65.9764254 76.2057143,65.1124211 C76.0685707,64.7486298 76,64.1688461 76,63.3730526 L76,44.4105263 C76,43.8875763 76.0171427,43.4953697 76.0514286,43.2338947 C76.0857145,42.9724197 76.1942848,42.6711596 76.3771429,42.3301053 C76.6971445,41.7162075 77.5885641,41.4092632 79.0514286,41.4092632 C80.6514366,41.4092632 81.5999985,41.8298905 81.8971429,42.6711579 C82.0114291,43.0576861 82.0685714,43.6488381 82.0685714,44.4446316 L82.0685714,50.9587368 C85.1771584,47.4799826 87.691419,44.6265375 89.6114286,42.3983158 C90.4114326,41.4661006 91.1085685,41 91.7028571,41 C92.2971458,41 93.051424,41.3922066 93.9657143,42.1766316 C94.8800046,42.9610566 95.3371429,43.643155 95.3371429,44.2229474 C95.3371429,44.8027397 94.9942891,45.4905223 94.3085714,46.2863158 C92.9828505,47.8096918 90.9257282,49.9014604 88.1371429,52.5616842 L86.7657143,53.8576842 Z" id="Path"></path>
            </g>
            <g id="Bottle" transform="translate(155.000000, 165.000000)" stroke="#FFFFFF" stroke-width="7.5">
                <path d="M70.6174689,6.8919069 L90.4669499,39.7573212 C90.5597608,39.9109911 90.6094926,40.0868118 90.6109252,40.2663284 L90.9997933,88.9920195 C91.0042008,89.5442867 90.5600728,89.9955606 90.0078056,89.9999682 C90.0051455,89.9999894 90.0024853,90 89.9998251,90 L1,90 C0.44771525,90 7.91607372e-15,89.5522847 0,89 L-1.23234756e-14,40.2723022 C-1.23459213e-14,40.0890186 0.0503719545,39.9092603 0.145612867,39.7526652 L20.1308827,6.89288636 C20.2261236,6.73629126 20.2764955,6.55653289 20.2764955,6.37324935 L20.2764955,1 C20.2764955,0.44771525 20.7242108,1.01453063e-16 21.2764955,0 L69.4734618,4.21884749e-15 C70.0257465,1.19658328e-14 70.4734618,0.44771525 70.4734618,1 L70.4734618,6.37491924 C70.4734618,6.55715073 70.5232575,6.73591806 70.6174689,6.8919069 Z" id="Path-3"></path>
                <path d="M69,6 L21.0176452,6 C20.4653605,6 20.0176452,6.44771525 20.0176452,7 C20.0176452,7.17792886 20.0651187,7.35263566 20.1551677,7.5060953 L39.1767685,39.9223295 L39.1767685,90" id="Path-6"></path>
                <path d="M90,40 L2.98939699,40 C2.43711224,40 1.98939699,39.5522847 1.98939699,39 C1.98939699,38.6650609 2.1570804,38.3523633 2.43607342,38.1670336 L29.7844991,20" id="Path-7"></path>
            </g>
        </g>
    </g>
</svg>